<svg width="125" height="13" fill="none" xmlns="http://www.w3.org/2000/svg"><path d="M6.318 12.182c3.324 0 6.011-2.688 6-6-.011-3.313-2.676-6-6-6-3.301 0-5.988 2.687-6 6-.011 3.312 2.699 6 6 6Zm0-1.318c-2.585 0-4.693-2.108-4.682-4.677C1.648 3.603 3.744 1.5 6.318 1.5c2.585 0 4.67 2.09 4.682 4.688.011 2.579-2.085 4.676-4.682 4.676ZM3 6.182a3.375 3.375 0 0 0 3.375 3.375c1.614 0 2.852-1.137 3.068-2.648H8.068c-.159.779-.818 1.33-1.693 1.33a2.056 2.056 0 1 1 0-4.114c.875 0 1.653.551 1.807 1.33h1.375C9.34 3.943 7.989 2.807 6.375 2.807A3.375 3.375 0 0 0 3 6.182ZM19.23 12h4.204c2.75 0 3.887-1.34 3.887-3.09 0-1.842-1.273-2.842-2.341-2.91v-.114c1-.272 1.886-.931 1.886-2.431 0-1.705-1.136-3.091-3.568-3.091H19.23V12Zm1.409-1.25V6.705h2.863c1.523 0 2.478 1.022 2.478 2.204 0 1.023-.705 1.841-2.546 1.841H20.64Zm0-5.273V1.614h2.659c1.545 0 2.227.818 2.227 1.84 0 1.228-1 2.023-2.273 2.023H20.64Zm11.223 6.727c1.523 0 2.319-.818 2.591-1.386h.068V12h1.341V6.25c0-2.773-2.113-3.09-3.227-3.09-1.318 0-2.818.454-3.5 2.045l1.273.454c.295-.636.994-1.318 2.273-1.318 1.233 0 1.84.653 1.84 1.773v.045c0 .648-.659.591-2.25.796-1.619.21-3.386.568-3.386 2.568 0 1.704 1.318 2.681 2.977 2.681ZM32.067 11c-1.068 0-1.841-.477-1.841-1.41 0-1.022.932-1.34 1.977-1.476.568-.069 2.091-.228 2.318-.5V8.84c0 1.09-.863 2.159-2.454 2.159Zm6.083 1h1.34V8.733l.938-.87L43.695 12H45.4l-3.96-5 3.687-3.727h-1.659L39.65 7.159h-.16V.364h-1.34V12Zm11.843.182c1.772 0 3.068-.886 3.477-2.205l-1.296-.363c-.34.909-1.13 1.363-2.181 1.363-1.574 0-2.66-1.017-2.722-2.886h6.335v-.568c0-3.25-1.932-4.364-3.75-4.364-2.363 0-3.932 1.864-3.932 4.546 0 2.681 1.546 4.477 4.069 4.477Zm-2.722-5.25c.09-1.358 1.051-2.568 2.585-2.568 1.455 0 2.387 1.09 2.387 2.568H47.27ZM55.486 12h1.34V6.477c0-1.182.933-2.045 2.206-2.045a4.1 4.1 0 0 1 .818.09V3.16a12.893 12.893 0 0 0-.705-.023c-1.045 0-1.954.591-2.273 1.455h-.09V3.273h-1.296V12ZM62.62.364h-1.34V12h1.34V.364Zm4.864 11.84c1.523 0 2.318-.818 2.591-1.386h.068V12h1.341V6.25c0-2.773-2.113-3.09-3.227-3.09-1.318 0-2.818.454-3.5 2.045l1.273.454c.295-.636.994-1.318 2.272-1.318 1.233 0 1.841.653 1.841 1.773v.045c0 .648-.659.591-2.25.796-1.619.21-3.386.568-3.386 2.568 0 1.704 1.318 2.681 2.977 2.681ZM67.69 11c-1.068 0-1.841-.477-1.841-1.41 0-1.022.932-1.34 1.977-1.476.568-.069 2.091-.228 2.318-.5V8.84c0 1.09-.863 2.159-2.454 2.159Zm6.265 1h1.295v-1.34h.159c.296.476.864 1.522 2.546 1.522 2.181 0 3.704-1.75 3.704-4.523 0-2.75-1.523-4.5-3.727-4.5-1.705 0-2.227 1.046-2.523 1.5h-.114V.364h-1.34V12Zm1.318-4.364c0-1.954.863-3.272 2.5-3.272 1.704 0 2.545 1.431 2.545 3.272 0 1.864-.863 3.341-2.545 3.341-1.614 0-2.5-1.363-2.5-3.34ZM87.866 12h7.341v-1.25h-5.409v-.09l2.614-2.796c2-2.142 2.59-3.142 2.59-4.432 0-1.796-1.454-3.227-3.5-3.227-2.039 0-3.59 1.386-3.59 3.431h1.34c0-1.324.859-2.204 2.205-2.204 1.262 0 2.228.773 2.228 2 0 1.074-.631 1.87-1.978 3.34l-3.84 4.205V12Zm13.323.16c2.569 0 4.046-2.177 4.046-5.978 0-3.773-1.5-5.977-4.046-5.977-2.545 0-4.045 2.204-4.045 5.977 0 3.801 1.477 5.977 4.045 5.977Zm0-1.25c-1.693 0-2.681-1.7-2.681-4.728 0-3.023 1-4.75 2.681-4.75 1.682 0 2.682 1.727 2.682 4.75 0 3.028-.988 4.727-2.682 4.727Zm6.045 1.09h7.341v-1.25h-5.409v-.09l2.613-2.796c2-2.142 2.591-3.142 2.591-4.432 0-1.796-1.454-3.227-3.5-3.227-2.039 0-3.591 1.386-3.591 3.431h1.341c0-1.324.858-2.204 2.205-2.204 1.261 0 2.227.773 2.227 2 0 1.074-.631 1.87-1.977 3.34l-3.841 4.205V12Zm9.527 0h7.341v-1.25h-5.409v-.09l2.614-2.796c2-2.142 2.591-3.142 2.591-4.432 0-1.796-1.455-3.227-3.5-3.227-2.04 0-3.591 1.386-3.591 3.431h1.341c0-1.324.858-2.204 2.204-2.204 1.262 0 2.228.773 2.228 2 0 1.074-.631 1.87-1.978 3.34l-3.841 4.205V12Z" fill="#7F8096"/></svg>